<svg width="144" height="31" viewBox="0 0 144 31" fill="none" xmlns="http://www.w3.org/2000/svg">
<circle cx="12.5" cy="12.5" r="12.5" fill="#6E73FB"/>
<path d="M34.244 3.232V23H28.756V21.236C28.0653 21.9827 27.188 22.552 26.124 22.944C25.06 23.336 23.8933 23.532 22.624 23.532C20.888 23.532 19.376 23.1587 18.088 22.412C16.8 21.6653 15.8387 20.592 15.204 19.192C14.756 18.24 14.532 17.1573 14.532 15.944C14.532 14.7867 14.756 13.704 15.204 12.696C15.8013 11.3147 16.7533 10.2507 18.06 9.504C19.3667 8.73867 20.888 8.356 22.624 8.356C23.856 8.356 24.9853 8.54267 26.012 8.916C27.0573 9.28933 27.9253 9.82133 28.616 10.512V3.232H34.244ZM28.7 15.86C28.7 15.1133 28.5133 14.4787 28.14 13.956C27.7667 13.4333 27.2627 13.0413 26.628 12.78C25.9933 12.5 25.2933 12.36 24.528 12.36C23.6133 12.36 22.82 12.5373 22.148 12.892C21.476 13.228 20.9907 13.732 20.692 14.404C20.4867 14.8707 20.384 15.384 20.384 15.944C20.384 16.504 20.4867 17.0173 20.692 17.484C20.9907 18.156 21.476 18.6693 22.148 19.024C22.82 19.36 23.6133 19.528 24.528 19.528C25.2933 19.528 25.9933 19.3973 26.628 19.136C27.2627 18.856 27.7667 18.4547 28.14 17.932C28.5133 17.4093 28.7 16.7747 28.7 16.028V15.86ZM46.573 23.532C44.2023 23.532 42.1676 23.1307 40.469 22.328C38.7703 21.5067 37.5663 20.3027 36.857 18.716C36.5023 17.876 36.325 16.952 36.325 15.944C36.325 14.936 36.5023 14.012 36.857 13.172C37.5663 11.5853 38.761 10.3907 40.441 9.588C42.1396 8.76667 44.1836 8.356 46.573 8.356C48.9623 8.356 50.997 8.75733 52.677 9.56C54.357 10.344 55.533 11.5013 56.205 13.032C56.597 13.8907 56.793 14.8613 56.793 15.944C56.793 17.008 56.597 17.9787 56.205 18.856C55.533 20.3867 54.357 21.5533 52.677 22.356C50.997 23.14 48.9623 23.532 46.573 23.532ZM46.573 19.528C47.5623 19.528 48.4116 19.36 49.121 19.024C49.849 18.6693 50.3623 18.1467 50.661 17.456C50.8663 16.9893 50.969 16.4853 50.969 15.944C50.969 15.4027 50.8663 14.8987 50.661 14.432C50.3623 13.7413 49.849 13.228 49.121 12.892C48.4116 12.5373 47.5623 12.36 46.573 12.36C45.5836 12.36 44.725 12.5467 43.997 12.92C43.269 13.2747 42.765 13.7973 42.485 14.488C42.2796 14.88 42.177 15.3653 42.177 15.944C42.177 16.5227 42.2796 17.008 42.485 17.4C42.765 18.0907 43.269 18.6227 43.997 18.996C44.725 19.3507 45.5836 19.528 46.573 19.528ZM58.8798 8.888H64.4518V10.316C64.9185 9.644 65.4132 9.15867 65.9358 8.86C66.4772 8.56133 67.0745 8.412 67.7278 8.412C68.7358 8.412 69.5292 8.692 70.1078 9.252C70.7052 9.79333 71.0038 10.5307 71.0038 11.464C71.0038 12.0613 70.8732 12.5933 70.6118 13.06C70.3505 13.5267 69.9865 13.8907 69.5198 14.152C69.0532 14.3947 68.5212 14.516 67.9238 14.516C67.2705 14.516 66.6918 14.3667 66.1878 14.068C65.6838 13.7693 65.3198 13.368 65.0958 12.864C64.8532 12.9573 64.6945 13.0973 64.6198 13.284C64.5452 13.452 64.5078 13.7693 64.5078 14.236V23H58.8798V8.888ZM85.4584 19.08C85.7384 18.856 85.9157 18.6227 85.9904 18.38H91.6744C91.4131 19.4813 90.8531 20.4333 89.9944 21.236C89.0984 22.076 87.9597 22.664 86.5784 23C85.2157 23.3547 83.6757 23.532 81.9584 23.532C79.5691 23.532 77.5157 23.14 75.7984 22.356C74.0811 21.572 72.8771 20.4147 72.1864 18.884C71.7944 18.0067 71.5984 17.036 71.5984 15.972C71.5984 14.8893 71.8037 13.8813 72.2144 12.948C72.8864 11.4173 74.0624 10.2693 75.7424 9.504C77.4224 8.73867 79.3917 8.356 81.6504 8.356C83.9651 8.356 85.9251 8.776 87.5304 9.616C89.1357 10.4373 90.2837 11.632 90.9744 13.2C91.5157 14.4693 91.7864 15.8413 91.7864 17.316H77.2544L77.4784 17.932C77.7957 18.6227 78.3557 19.136 79.1584 19.472C79.9797 19.808 80.9504 19.976 82.0704 19.976C82.7984 19.976 83.4611 19.9013 84.0584 19.752C84.6557 19.6027 85.1224 19.3787 85.4584 19.08ZM81.6784 11.884C80.6517 11.884 79.7744 12.0613 79.0464 12.416C78.3371 12.752 77.8237 13.256 77.5064 13.928C77.4317 14.096 77.3664 14.2827 77.3104 14.488H86.1304C86.0557 14.2267 85.9904 14.0307 85.9344 13.9C85.6357 13.228 85.1131 12.724 84.3664 12.388C83.6197 12.052 82.7237 11.884 81.6784 11.884ZM116.841 8.356C118.166 8.356 119.305 8.59867 120.257 9.084C121.209 9.55067 121.937 10.2413 122.441 11.156C122.945 12.0707 123.197 13.172 123.197 14.46V23H117.569V15.384C117.569 14.4133 117.317 13.6667 116.813 13.144C116.309 12.6213 115.571 12.36 114.601 12.36C113.537 12.36 112.725 12.6587 112.165 13.256C111.605 13.8347 111.325 14.6373 111.325 15.664V23H105.725V15.384C105.725 14.4133 105.463 13.6667 104.941 13.144C104.437 12.6213 103.699 12.36 102.729 12.36C101.665 12.36 100.853 12.6587 100.293 13.256C99.7512 13.8533 99.4805 14.6747 99.4805 15.72V23H93.8525V8.888H99.4805V10.904C100.153 10.1013 100.983 9.476 101.973 9.028C102.962 8.58 104.091 8.356 105.361 8.356C106.667 8.356 107.787 8.608 108.721 9.112C109.673 9.616 110.373 10.3067 110.821 11.184C111.511 10.2507 112.351 9.55067 113.341 9.084C114.33 8.59867 115.497 8.356 116.841 8.356ZM128.973 7.376C128.432 7.376 127.937 7.264 127.489 7.04C127.06 6.816 126.724 6.49867 126.481 6.088C126.239 5.67733 126.117 5.21067 126.117 4.688C126.117 4.16533 126.239 3.69867 126.481 3.288C126.724 2.85867 127.06 2.532 127.489 2.308C127.937 2.06533 128.432 1.944 128.973 1.944C129.515 1.944 130 2.06533 130.429 2.308C130.877 2.532 131.223 2.85867 131.465 3.288C131.727 3.69867 131.857 4.16533 131.857 4.688C131.857 5.21067 131.727 5.67733 131.465 6.088C131.223 6.49867 130.877 6.816 130.429 7.04C130 7.264 129.515 7.376 128.973 7.376ZM126.145 8.888H131.773V23H126.145V8.888ZM138.481 23.588C137.883 23.588 137.351 23.4573 136.885 23.196C136.418 22.9533 136.054 22.5987 135.793 22.132C135.531 21.6653 135.401 21.124 135.401 20.508C135.401 19.892 135.522 19.36 135.765 18.912C136.026 18.4453 136.39 18.0907 136.857 17.848C137.323 17.5867 137.865 17.456 138.481 17.456C139.078 17.456 139.61 17.5867 140.077 17.848C140.543 18.0907 140.907 18.4453 141.169 18.912C141.43 19.3787 141.561 19.9107 141.561 20.508C141.561 21.1053 141.43 21.6373 141.169 22.104C140.907 22.5707 140.543 22.9347 140.077 23.196C139.61 23.4573 139.078 23.588 138.481 23.588Z" fill="black"/>
</svg>
